<svg xmlns="http://www.w3.org/2000/svg" xmlns:xlink="http://www.w3.org/1999/xlink" version="1.1" viewBox="0 0 14 14"><g fill="none" fill-rule="evenodd" stroke="none" stroke-width="1"><g><path stroke="currentColor" d="M159.5,0.5 L0.5,0.5 L0.5,29.5 L159.5,29.5 L159.5,0.5 Z" transform="translate(-136.000000, -8.000000)"/><g fill="currentColor" fill-rule="nonzero" transform="translate(-136.000000, -8.000000) translate(136.000000, 8.000000)"><path id="Shape" d="M0,14 L14,14 L14,3 L0,3 L0,14 Z M2,5 L12,5 L12,12 L2,12 L2,5 Z"/><rect id="Rectangle-path" width="14" height="2" x="0" y="0"/><rect id="Rectangle-path" width="2" height="2" x="9" y="6"/><rect id="Rectangle-path" width="2" height="2" x="9" y="9"/><rect id="Rectangle-path" width="2" height="2" x="6" y="6"/><rect id="Rectangle-path" width="2" height="2" x="6" y="9"/><rect id="Rectangle-path" width="2" height="2" x="3" y="6"/><rect id="Rectangle-path" width="2" height="2" x="3" y="9"/></g></g></g></svg>