<svg xmlns="http://www.w3.org/2000/svg" xmlns:xlink="http://www.w3.org/1999/xlink" width="16" height="16" version="1.1" viewBox="0 0 16 16"><title>部门</title><g id="PC-流程属性、找人找部门+公式化编辑器+字段权限" fill="none" fill-rule="evenodd" stroke="none" stroke-width="1"><g id="部门"><g transform="translate(-3271.000000, -1246.000000) translate(3271.000000, 1246.000000)"><rect id="矩形" width="16" height="16" x="0" y="0" fill="#FFF" fill-opacity=".01" fill-rule="nonzero"/><circle id="椭圆形" cx="4.667" cy="9.667" r="1.667" stroke="#FFF" stroke-linecap="round" stroke-linejoin="round"/><circle id="椭圆形" cx="11.333" cy="9.667" r="1.667" stroke="#FFF" stroke-linecap="round" stroke-linejoin="round"/><circle id="椭圆形" cx="8" cy="3" r="1.667" stroke="#FFF" stroke-linecap="round" stroke-linejoin="round"/><path id="路径" stroke="#FFF" stroke-linecap="round" stroke-linejoin="round" d="M8,14.6666667 C8,12.8257333 6.5076,11.3333333 4.66666667,11.3333333 C2.82571667,11.3333333 1.33333333,12.8257333 1.33333333,14.6666667"/><path id="路径" stroke="#FFF" stroke-linecap="round" stroke-linejoin="round" d="M14.6666667,14.6666667 C14.6666667,12.8257333 13.1742667,11.3333333 11.3333333,11.3333333 C9.4924,11.3333333 8,12.8257333 8,14.6666667"/><path id="路径" stroke="#FFF" stroke-linecap="round" stroke-linejoin="round" d="M11.3333333,8 C11.3333333,6.15906667 9.84093333,4.66666667 8,4.66666667 C6.15906667,4.66666667 4.66666667,6.15906667 4.66666667,8"/></g></g></g></svg>