<svg xmlns="http://www.w3.org/2000/svg" xmlns:xlink="http://www.w3.org/1999/xlink" width="16" height="16" version="1.1" viewBox="0 0 16 16"><title>4.图标元件/3.操作/删除</title><g id="4.图标元件/3.操作/删除" fill="none" fill-rule="evenodd" stroke="none" stroke-width="1"><rect id="矩形" width="15" height="15" x=".5" y=".5" fill="#D8D8D8" stroke="#979797" opacity="0"/><path id="形状结合" fill="#151B26" d="M14,3.499 L14,4.5 L12.497,4.5 L12.498,14.5 L3.498,14.5 L3.497,4.5 L2,4.5 L2,3.499 L14,3.499 Z M11.498,4.5 L4.497,4.5 L4.497,13.5 L11.498,13.5 L11.498,4.5 Z M6.998,7.499 L6.998,11.499 L5.998,11.499 L5.998,7.499 L6.998,7.499 Z M9.998,7.499 L9.998,11.499 L8.998,11.499 L8.998,7.499 L9.998,7.499 Z M9.999,1.5 L9.999,2.499 L5.998,2.499 L5.998,1.5 L9.999,1.5 Z"/></g></svg>